<svg width="128" height="128" viewBox="0 0 128 128" xmlns="http://www.w3.org/2000/svg"><g transform="translate(0.00,1.00) scale(1.0000)"><path d="M24.46 18.00 C22.92 18.46 21.25 19.10 20.09 20.14 C18.93 21.18 17.93 22.73 17.51 24.22 C17.08 25.71 17.13 27.57 17.56 29.07 C17.99 30.57 18.96 32.12 20.08 33.22 C21.20 34.32 22.79 35.11 24.29 35.66 C25.79 36.22 27.48 36.38 29.10 36.57 C30.72 36.75 32.37 36.73 34.01 36.76 C35.64 36.80 37.28 36.78 38.92 36.79 C40.55 36.79 42.19 36.79 43.83 36.79 C45.46 36.79 47.10 36.79 48.74 36.79 C50.37 36.79 52.01 36.79 53.64 36.79 C55.28 36.79 56.92 36.79 58.55 36.79 C60.19 36.80 61.83 36.78 63.46 36.82 C65.10 36.86 66.74 36.86 68.37 37.02 C69.99 37.18 71.64 37.35 73.21 37.78 C74.77 38.21 76.35 38.80 77.76 39.59 C79.16 40.39 80.51 41.41 81.65 42.56 C82.78 43.71 83.80 45.06 84.58 46.48 C85.36 47.90 85.93 49.48 86.30 51.06 C86.68 52.63 86.83 54.31 86.80 55.93 C86.78 57.55 86.55 59.21 86.15 60.78 C85.74 62.35 85.09 63.89 84.37 65.35 C83.64 66.80 82.42 68.10 81.80 69.52 C81.17 70.94 80.03 73.02 80.63 73.86 C81.23 74.71 83.80 74.56 85.41 74.57 C87.02 74.58 88.68 74.26 90.27 73.92 C91.87 73.58 93.45 73.11 94.97 72.52 C96.49 71.93 97.98 71.21 99.38 70.38 C100.78 69.55 102.14 68.59 103.38 67.54 C104.62 66.48 105.79 65.30 106.82 64.05 C107.86 62.79 108.80 61.42 109.59 60.00 C110.37 58.58 111.04 57.05 111.54 55.50 C112.04 53.96 112.35 52.33 112.58 50.71 C112.81 49.10 112.86 47.45 112.92 45.82 C112.98 44.19 112.99 42.55 112.94 40.91 C112.89 39.28 112.86 37.63 112.64 36.01 C112.42 34.40 112.14 32.76 111.63 31.22 C111.12 29.68 110.43 28.15 109.57 26.78 C108.70 25.41 107.64 24.10 106.47 22.99 C105.29 21.88 103.92 20.89 102.50 20.11 C101.09 19.33 99.52 18.73 97.96 18.29 C96.39 17.85 94.75 17.64 93.13 17.46 C91.50 17.29 89.86 17.27 88.22 17.23 C86.59 17.18 84.95 17.20 83.31 17.19 C81.68 17.19 80.04 17.19 78.41 17.19 C76.77 17.19 75.13 17.19 73.50 17.19 C71.86 17.19 70.22 17.19 68.59 17.19 C66.95 17.19 65.31 17.19 63.68 17.19 C62.04 17.19 60.41 17.19 58.77 17.19 C57.13 17.19 55.50 17.19 53.86 17.19 C52.22 17.19 50.59 17.19 48.95 17.19 C47.31 17.19 45.68 17.19 44.04 17.19 C42.41 17.19 40.77 17.19 39.13 17.19 C37.50 17.19 35.86 17.18 34.22 17.20 C32.59 17.23 30.94 17.20 29.32 17.33 C27.69 17.46 26.00 17.53 24.46 18.00 Z" fill="#00C2A8"/><path d="M52.23 56.58 C50.54 56.74 48.85 56.97 47.18 57.30 C45.52 57.62 43.86 58.02 42.23 58.52 C40.61 59.01 39.00 59.59 37.44 60.25 C35.88 60.92 34.34 61.67 32.87 62.51 C31.40 63.35 29.96 64.28 28.60 65.30 C27.24 66.31 25.93 67.41 24.72 68.60 C23.52 69.79 22.37 71.08 21.37 72.44 C20.36 73.80 19.45 75.26 18.69 76.77 C17.93 78.28 17.28 79.88 16.80 81.50 C16.32 83.12 15.97 84.82 15.81 86.50 C15.64 88.18 15.64 89.91 15.83 91.59 C16.01 93.27 16.37 94.97 16.92 96.56 C17.47 98.16 18.21 99.73 19.13 101.15 C20.04 102.56 21.16 103.90 22.40 105.04 C23.64 106.17 25.08 107.17 26.57 107.95 C28.07 108.72 29.72 109.27 31.36 109.69 C32.99 110.10 34.70 110.29 36.39 110.46 C38.08 110.63 39.79 110.66 41.49 110.71 C43.19 110.77 44.89 110.77 46.59 110.78 C48.29 110.80 49.99 110.80 51.69 110.80 C53.39 110.81 55.09 110.81 56.79 110.81 C58.49 110.81 60.19 110.81 61.89 110.81 C63.59 110.81 65.29 110.81 66.99 110.80 C68.69 110.79 70.39 110.77 72.09 110.75 C73.79 110.73 75.49 110.70 77.19 110.69 C78.89 110.69 80.59 110.70 82.29 110.71 C83.99 110.73 85.69 110.77 87.39 110.77 C89.09 110.78 90.79 110.81 92.49 110.76 C94.19 110.71 95.91 110.72 97.59 110.49 C99.26 110.26 101.04 110.07 102.55 109.40 C104.07 108.73 105.70 107.76 106.66 106.49 C107.63 105.22 108.29 103.36 108.35 101.77 C108.41 100.17 107.86 98.29 107.01 96.92 C106.16 95.56 104.67 94.39 103.23 93.59 C101.79 92.80 100.02 92.45 98.36 92.14 C96.70 91.83 94.98 91.81 93.28 91.73 C91.58 91.65 89.88 91.67 88.18 91.66 C86.48 91.64 84.78 91.65 83.08 91.65 C81.38 91.65 79.68 91.65 77.98 91.65 C76.28 91.65 74.58 91.65 72.88 91.65 C71.18 91.65 69.48 91.65 67.78 91.66 C66.08 91.67 64.38 91.68 62.68 91.70 C60.98 91.71 59.28 91.74 57.58 91.74 C55.88 91.74 54.17 91.81 52.48 91.70 C50.78 91.59 48.97 91.63 47.42 91.09 C45.87 90.55 44.00 89.71 43.17 88.46 C42.34 87.21 42.15 85.13 42.44 83.59 C42.74 82.04 43.95 80.54 44.94 79.18 C45.93 77.82 47.21 76.65 48.38 75.42 C49.55 74.19 50.78 73.00 51.98 71.80 C53.18 70.59 54.38 69.39 55.58 68.19 C56.78 66.99 58.01 65.80 59.18 64.57 C60.35 63.34 62.08 62.10 62.62 60.81 C63.15 59.52 63.27 57.56 62.38 56.81 C61.50 56.06 59.02 56.35 57.32 56.32 C55.63 56.28 53.92 56.41 52.23 56.58 Z" fill="#00C2A8"/></g></svg>